<svg xmlns="http://www.w3.org/2000/svg" width="250" height="250" viewBox="0 0 250 250">
<!-- SVG created with Arrow, by QuiverAI (https://quiver.ai) -->
  <path d="m118 5.64 3.6-0.02v38.18c-31.54 0.56-50.32 15.27-60.35 26.86-12.09 14.12-18.09 30.03-18.09 50.84h-37.08c-0.03-3.98 0.57-8.73 0.74-8.76l16.1-3.78c1.41-8.01 2.84-13.35 5.49-20.5l-13.99-12.73c3.6-8.85 8.41-15.42 12.81-21.47l18.42 6.15c5.71-6.46 10.65-11.42 15.02-14.71l-5.61-18.29c7.36-5.82 13.6-9.17 20.59-12.85l13.88 14.05c7.23-2.96 10.58-3.88 18.72-5.69l4.56-16.83c1.69-0.26 3.43-0.4 5.19-0.45z" fill="#179995"/>
  <path d="m6.04 127.8 36.93 0.13c0.72 35.79 29.44 76.15 78.59 78.25v37.74l-8.79-0.66-4.56-18.11c-8.14-1.27-11.49-2.44-18.72-5.2l-13.88 14.28c-6.99-3.01-13.7-7.16-20.1-12.47l4.78-17.85c-6.36-4.93-9.47-8.04-14.68-14.11l-18.42 5.11c-5.44-6.35-8.81-12.21-12.81-21.45l14.39-12.36c-2.51-6.98-3.76-11.84-5.49-20.94l-16.92-3.69-0.32-8.67z" fill="#179995"/>
  <path d="m127.3 5.55 9.21 0.54 4.1 16.24c8.14 1.54 12.59 2.62 19.64 6.28l12.6-14.05c8.11 3.33 15.1 8.32 20.75 12.56l-5.22 18.92c7.17 5.75 10.7 9.53 15.73 14.62l18.1-6.4c6.2 7.8 10.5 15 12.66 21.75l-13.87 12.73c2.96 7.27 4.27 12.21 5.17 19.98l17.28 4.02c0.53 2.17 0.73 5.92 0.73 8.68h-37.31c-0.14-36.31-30.69-75.31-79.57-78v-37.87z" fill="#35505E"/>
  <path d="m207.4 127.8 37.07 0.13c0 3.25-0.52 8.87-1.03 8.97l-18.1 4.02c-1.15 8.15-2.42 13.03-4.95 20.18l14.47 12.36c-3.6 8.85-7.97 15.42-12.66 21.45l-18.42-6.15c-5.71 6.46-8.82 9.64-15.41 15.15l5.22 17.85c-7.36 5.82-12.64 8.71-20.75 12.47l-12.6-14.84c-7.23 3.51-11.5 4.19-20.25 5.76l-3.79 18.11-9.21 0.66 0.13-37.87c37.54-0.79 78.8-33.9 80.28-78.25z" fill="#35505E"/>
  <path d="m121.3 61.16v37.53c-26.12 0-48.49-7.95-48.49-17.76 0-9.82 19.04-19.77 48.49-19.77z" fill="#179995"/>
  <path d="m127 61.16c26.12 0 48.8 7.95 48.8 18.65 0 9.81-19.35 18.4-48.8 18.88v-37.53z" fill="#35505E"/>
  <path d="m126.9 105.2c19.21 0 37.2-5.32 48.9-14.82v20.23c0 9.82-19.45 17.3-48.8 17.78l-0.1-23.19z" fill="#35505E"/>
  <path d="m121.3 105.2c-19.21 0-37.2-4.42-48.49-14.82v20.23c0 9.82 19.45 17.3 48.8 17.78l-0.31-23.19z" fill="#179995"/>
  <path d="m126.9 135c19.21 0 37.2-5.32 48.9-14.82v20.23c0 9.82-19.45 17.3-48.8 18.74l-0.1-24.15z" fill="#35505E"/>
  <path d="m121.3 135c-19.21 0-37.2-5.32-48.49-14.82v20.23c0 9.82 19.04 17.77 48.49 18.25v-23.66z" fill="#179995"/>
  <path d="m126.9 165.6c19.21-0.48 37.2-5.39 48.9-15.79v20.23c0 9.32-19.45 17.27-48.8 17.75l-0.1-22.19z" fill="#35505E"/>
  <path d="m121.3 165.1c-19.21 0-37.2-4.43-48.49-15.31v20.23c0 9.32 19.04 17.27 48.49 17.75v-22.67z" fill="#179995"/>
</svg>